<svg width="1913" height="808" viewBox="0 0 1913 808" fill="none" xmlns="http://www.w3.org/2000/svg">
<path d="M808 128C808 198.692 750.692 256 680 256C609.308 256 552 198.692 552 128C552 57.3075 609.308 0 680 0C750.692 0 808 57.3075 808 128Z" fill="#FCD227"/>
<path d="M788 128C788 68.3532 739.647 20 680 20C620.353 20 572 68.3532 572 128C572 187.647 620.353 236 680 236V256C609.308 256 552 198.692 552 128C552 57.3075 609.308 0 680 0C750.692 0 808 57.3075 808 128C808 198.692 750.692 256 680 256V236C739.647 236 788 187.647 788 128Z" fill="#323232"/>
<path d="M674.191 213.04V193.929C666.522 193.805 659.44 193.125 652.946 191.888C646.514 190.589 640.948 188.919 636.247 186.878V167.117C641.009 169.344 646.885 171.354 653.874 173.147C660.863 174.941 667.635 175.962 674.191 176.209V141.419C665.223 138.388 657.925 135.234 652.297 131.956C646.73 128.678 642.648 124.874 640.051 120.545C637.453 116.154 636.154 110.896 636.154 104.773C636.154 98.4648 637.731 93.0531 640.886 88.5381C644.102 83.9613 648.555 80.3431 654.245 77.6836C659.997 75.0241 666.646 73.4469 674.191 72.9521V57.8301H686.252V72.6738C693.117 72.8594 699.457 73.6325 705.271 74.9932C711.146 76.292 716.743 78.1165 722.062 80.4668L715.29 97.7227C710.651 95.8672 705.827 94.3519 700.817 93.1768C695.808 92.0016 690.952 91.1976 686.252 90.7646V124.72C693.798 127.194 700.508 129.853 706.384 132.698C712.321 135.543 716.96 139.131 720.3 143.46C723.701 147.728 725.402 153.325 725.402 160.252C725.402 169.344 722.062 176.858 715.383 182.796C708.703 188.672 698.993 192.197 686.252 193.372V213.04H674.191ZM686.252 175.467C692.189 174.725 696.612 173.178 699.519 170.828C702.425 168.416 703.879 165.293 703.879 161.458C703.879 158.86 703.26 156.665 702.023 154.871C700.848 153.077 698.962 151.469 696.364 150.047C693.828 148.624 690.458 147.233 686.252 145.872V175.467ZM674.191 120.174V91.1357C670.604 91.5068 667.574 92.249 665.1 93.3623C662.626 94.4756 660.77 95.929 659.533 97.7227C658.296 99.5163 657.678 101.65 657.678 104.124C657.678 106.845 658.234 109.165 659.348 111.082C660.461 112.999 662.224 114.669 664.636 116.092C667.11 117.514 670.295 118.875 674.191 120.174Z" fill="#323232"/>
<path d="M532 404C532 474.692 474.692 532 404 532C333.308 532 276 474.692 276 404C276 333.308 333.308 276 404 276C474.692 276 532 333.308 532 404Z" fill="#FB8500"/>
<path d="M512 404C512 344.353 463.647 296 404 296C344.353 296 296 344.353 296 404C296 463.647 344.353 512 404 512V532C333.308 532 276 474.692 276 404C276 333.308 333.308 276 404 276C474.692 276 532 333.308 532 404C532 474.692 474.692 532 404 532V512C463.647 512 512 463.647 512 404Z" fill="#323232"/>
<path d="M398.191 489.04V469.929C390.522 469.805 383.44 469.125 376.946 467.888C370.514 466.589 364.948 464.919 360.247 462.878V443.117C365.009 445.344 370.885 447.354 377.874 449.147C384.863 450.941 391.635 451.962 398.191 452.209V417.419C389.223 414.388 381.925 411.234 376.297 407.956C370.73 404.678 366.648 400.874 364.051 396.545C361.453 392.154 360.154 386.896 360.154 380.773C360.154 374.465 361.731 369.053 364.886 364.538C368.102 359.961 372.555 356.343 378.245 353.684C383.997 351.024 390.646 349.447 398.191 348.952V333.83H410.252V348.674C417.117 348.859 423.457 349.632 429.271 350.993C435.146 352.292 440.743 354.117 446.062 356.467L439.29 373.723C434.651 371.867 429.827 370.352 424.817 369.177C419.808 368.002 414.952 367.198 410.252 366.765V400.72C417.798 403.194 424.508 405.853 430.384 408.698C436.321 411.543 440.96 415.131 444.3 419.46C447.701 423.728 449.402 429.325 449.402 436.252C449.402 445.344 446.062 452.858 439.383 458.796C432.703 464.672 422.993 468.197 410.252 469.372V489.04H398.191ZM410.252 451.467C416.189 450.725 420.612 449.178 423.519 446.828C426.425 444.416 427.879 441.293 427.879 437.458C427.879 434.86 427.26 432.665 426.023 430.871C424.848 429.077 422.962 427.469 420.364 426.047C417.828 424.624 414.458 423.233 410.252 421.872V451.467ZM398.191 396.174V367.136C394.604 367.507 391.574 368.249 389.1 369.362C386.626 370.476 384.77 371.929 383.533 373.723C382.296 375.516 381.678 377.65 381.678 380.124C381.678 382.845 382.234 385.165 383.348 387.082C384.461 388.999 386.224 390.669 388.636 392.092C391.11 393.514 394.295 394.875 398.191 396.174Z" fill="#323232"/>
<path d="M532 128C532 198.692 474.692 256 404 256C333.308 256 276 198.692 276 128C276 57.3075 333.308 0 404 0C474.692 0 532 57.3075 532 128Z" fill="#00C3FF"/>
<path d="M512 128C512 68.3532 463.647 20 404 20C344.353 20 296 68.3532 296 128C296 187.647 344.353 236 404 236V256C333.308 256 276 198.692 276 128C276 57.3075 333.308 0 404 0C474.692 0 532 57.3075 532 128C532 198.692 474.692 256 404 256V236C463.647 236 512 187.647 512 128Z" fill="#323232"/>
<path d="M383.346 169.558C380.654 169.558 378.882 168.706 378.031 167.003C377.323 165.157 376.969 163.098 376.969 160.827C376.969 154.012 378.173 148.405 380.583 144.004C383.134 139.461 386.394 135.628 390.362 132.504C394.331 129.239 398.512 126.258 402.906 123.56C407.299 120.721 411.48 117.74 415.449 114.616C419.417 111.351 422.606 107.376 425.016 102.691C427.567 98.0062 428.843 92.1856 428.843 85.2291C428.843 77.7049 426.575 71.3163 422.039 66.0635C417.504 60.8107 411.48 58.1843 403.969 58.1843C399.717 58.1843 396.031 59.0361 392.913 60.7397C389.795 62.3014 387.031 64.147 384.622 66.2765C382.213 68.406 379.803 70.3225 377.394 72.0262C374.984 73.5878 372.291 74.3686 369.315 74.3686C367.189 74.3686 365.772 73.8717 365.063 72.878C364.354 71.7422 364 70.1096 364 67.9801C364 63.1532 365.346 59.1071 368.039 55.8418C370.732 52.4346 374.205 49.7372 378.457 47.7497C382.709 45.7621 387.173 44.3425 391.85 43.4907C396.669 42.4969 401.063 42 405.031 42C413.394 42 420.551 44.0585 426.504 48.1756C432.457 52.2927 436.992 57.6874 440.11 64.3599C443.37 71.0324 445 78.3437 445 86.2939C445 95.5218 443.016 104.253 439.047 112.487C435.22 120.579 429.268 127.394 421.189 132.93C417.362 135.486 413.465 137.899 409.496 140.171C405.669 142.3 402.409 145.281 399.717 149.115C397.874 151.244 396.386 153.941 395.252 157.207C394.26 160.33 392.913 163.169 391.213 165.725C389.654 168.28 387.031 169.558 383.346 169.558ZM380.795 213C377.535 213 375.055 211.935 373.354 209.806C371.795 207.676 371.016 205.263 371.016 202.565C371.016 199.016 372.15 195.68 374.417 192.557C376.827 189.433 380.087 187.872 384.197 187.872C387.457 187.872 389.866 188.937 391.425 191.066C392.984 193.054 393.764 195.467 393.764 198.306C393.764 201.856 392.63 205.192 390.362 208.315C388.094 211.438 384.906 213 380.795 213Z" fill="#323232"/>
<path d="M882 0L829 54L958 256L1085 54L1032 0H882Z" fill="#87DAFF"/>
<path d="M882 0L829 54L958 256L882 0Z" fill="#0096DC"/>
<path d="M1032 0H882L958 256L1032 0Z" fill="#00C3FF"/>
<path d="M882 0L829 54H898L882 0Z" fill="#00AAF0"/>
<path d="M1032 0L1085 54H1016.5L1032 0Z" fill="#A5E9FF"/>
<path d="M898 54L958 0L1016.5 54H898Z" fill="#87DAFF"/>
<path d="M1216.86 22.4436L1188.71 79.6486L1124.55 88.6219C1111.6 91.4261 1108.79 109.373 1116.67 116.664L1161.7 160.408L1151.57 224.904C1149.88 235.56 1160.57 245.655 1173.52 241.168L1231.49 210.883L1291.72 242.29C1303.54 246.216 1313.67 236.682 1311.42 223.222L1301.29 160.408L1348 114.42C1356.45 106.008 1349.13 90.3043 1339 88.6219L1274.27 79.6486L1246.13 22.4436C1240.5 11.2268 1223.05 10.6661 1216.86 22.4436Z" fill="#FCD227"/>
<path d="M1210.39 19.0416C1219.37 1.94887 1244.39 2.67784 1252.66 19.1648L1252.67 19.1906L1252.69 19.2165L1279.12 72.9401L1340 81.3811L1340.1 81.3945L1340.2 81.4105C1348.51 82.7914 1354.59 89.5017 1357.27 96.3212C1360.02 103.312 1360.06 112.725 1353.16 119.599L1353.13 119.63L1309.1 162.97L1318.63 222.058C1320.09 230.834 1317.59 239.1 1311.9 244.553C1306.13 250.088 1297.78 252.006 1289.41 249.228L1288.86 249.043L1231.49 219.129L1176.42 247.898L1175.91 248.076C1158.07 254.259 1141.74 240.203 1144.35 223.76L1153.89 163.014L1111.6 121.934C1105.29 116.007 1103.94 106.773 1105.68 99.3044C1107.48 91.5432 1113.09 83.6237 1123 81.4775L1123.27 81.4195L1183.86 72.9446L1210.3 19.2165L1210.34 19.1282L1210.39 19.0416ZM1239.59 25.7219C1236.62 19.7911 1226.78 19.3857 1223.36 25.796L1193.56 86.3516L1125.88 95.8161C1122.95 96.5409 1120.77 98.968 1119.92 102.616C1119.02 106.48 1120.08 109.722 1121.5 111.164L1121.63 111.298L1121.7 111.358L1121.76 111.42L1169.51 157.803L1158.79 226.039L1158.79 226.048C1158.03 230.824 1162.88 236.816 1170.66 234.41L1231.49 202.637L1294.51 235.5C1297.72 236.413 1300.18 235.537 1301.79 233.998C1303.55 232.309 1304.99 229.096 1304.21 224.428L1304.2 224.407L1304.2 224.386L1293.47 157.847L1342.85 109.233C1344.39 107.693 1344.99 105.051 1343.66 101.673C1342.28 98.1461 1339.66 96.1673 1337.85 95.8411L1269.42 86.357L1239.59 25.7219Z" fill="#323232"/>
<path d="M809 404C809 474.692 751.692 532 681 532C610.308 532 553 474.692 553 404C553 333.308 610.308 276 681 276C751.692 276 809 333.308 809 404Z" fill="#FB8500"/>
<path d="M789 404C789 344.353 740.647 296 681 296C621.353 296 573 344.353 573 404C573 463.647 621.353 512 681 512V532C610.308 532 553 474.692 553 404C553 333.308 610.308 276 681 276C751.692 276 809 333.308 809 404C809 474.692 751.692 532 681 532V512C740.647 512 789 463.647 789 404Z" fill="#323232"/>
<path d="M681 341C688.456 341 694.5 347.044 694.5 354.5V390.5H730.5C737.956 390.5 744 396.544 744 404C744 411.456 737.956 417.5 730.5 417.5H694.5V453.5C694.5 460.956 688.456 467 681 467C673.544 467 667.5 460.956 667.5 453.5V417.5H631.5C624.044 417.5 618 411.456 618 404C618 396.544 624.044 390.5 631.5 390.5H667.5V354.5C667.5 347.044 673.544 341 681 341Z" fill="#323232"/>
<rect x="888" y="416" width="20" height="93" rx="10" fill="#323232"/>
<rect x="888" y="303" width="20" height="46" rx="10" fill="#323232"/>
<path d="M898 331C925.614 331 948 353.386 948 381C948 408.614 925.614 431 898 431C870.386 431 848 408.614 848 381C848 353.386 870.386 331 898 331ZM898 351C881.431 351 868 364.431 868 381C868 397.569 881.431 411 898 411C914.569 411 928 397.569 928 381C928 364.431 914.569 351 898 351Z" fill="#FB8500"/>
<rect x="1003" y="469" width="20" height="40" rx="10" fill="#323232"/>
<rect x="1003" y="303" width="20" height="93" rx="10" fill="#323232"/>
<path d="M1013 381C1040.61 381 1063 403.386 1063 431C1063 458.614 1040.61 481 1013 481C985.386 481 963 458.614 963 431C963 403.386 985.386 381 1013 381ZM1013 401C996.431 401 983 414.431 983 431C983 447.569 996.431 461 1013 461C1029.57 461 1043 447.569 1043 431C1043 414.431 1029.57 401 1013 401Z" fill="#0096DC"/>
<circle cx="80.8337" cy="76.317" r="53.8478" fill="#323232"/>
<circle cx="180.991" cy="83.8557" r="38.7704" fill="#323232"/>
<circle cx="80.8334" cy="76.317" r="38.7704" fill="#9FE900"/>
<circle cx="180.991" cy="83.8556" r="25.847" fill="#D9D9D9"/>
<path d="M239.146 167.32C239.146 190.814 228.369 202.321 197.892 202.321C156.638 204.475 136.349 183.317 134.143 167.32C129.835 136.088 154.605 123.472 189.855 127.472C225.106 131.472 239.146 149.55 239.146 167.32Z" fill="#00BBFF"/>
<path d="M65.1612 134.716C73.374 134.097 91.1479 134.731 100.577 135.808L101.492 135.918L101.767 135.953L102.042 135.996C122.264 139.188 136.462 149.706 145.406 161.692C153.694 172.799 157.792 185.594 158.036 195.683C158.742 203.808 156.912 211.707 153.185 218.167C149.479 224.59 142.719 231.376 132.88 233.015L131.474 233.249H35.2757C27.5952 233.249 20.4578 230.216 15.1848 226.095C9.97068 222.02 4.39705 215.098 3.57068 205.677C-0.163882 163.101 34.4156 137.569 64.3725 134.782L65.1612 134.716ZM99.3546 153.017C90.7392 151.94 72.431 151.338 65.969 151.94L64.8825 152.053C42.0471 154.702 18.0868 173.957 20.7368 204.171C21.2859 210.431 28.3509 215.681 34.6667 216.003L35.2757 216.018H130.048L130.35 215.962C136.676 214.671 141.878 206.173 140.817 196.632C140.817 184.247 130.047 157.863 99.3546 153.017Z" fill="#323232"/>
<path d="M217.998 194.952H152.989V211.645H218.536C229.844 211.645 241.022 202.336 245.46 189.029C247.659 182.434 246.992 174.49 246.537 171.259C243.807 151.874 228.229 131.412 199.151 126.565C194.305 125.757 176.144 125.319 166.304 126.565C156.463 127.812 144.912 134.473 140.604 139.858C138.45 144.874 142.758 152.781 149.22 151.704C152.598 151.141 158.913 144.165 168.067 143.258C176.144 142.458 188.529 142.55 194.305 143.258C210.459 143.258 231.258 159.412 229.844 182.029C229.44 188.49 223.382 194.952 217.998 194.952Z" fill="#323232"/>
<path d="M1774.33 207.333C1777.65 207.333 1780.33 210.02 1780.33 213.333C1780.33 216.647 1777.65 219.333 1774.33 219.333H1678.33C1675.02 219.333 1672.33 216.647 1672.33 213.333C1672.33 210.02 1675.02 207.333 1678.33 207.333H1774.33Z" fill="#323232"/>
<path d="M1802.5 29C1783.14 29.2194 1777.68 35.4 1775.5 55V220.5C1778.53 227.884 1781.43 230.069 1790 230.5L1860 212V64C1858.39 48.6075 1854.27 43.2324 1841.5 39L1802.5 29Z" fill="#9FE900"/>
<path d="M1790 21.925C1794.06 21.0643 1798.27 21.1398 1802.3 22.1467L1844.96 32.8137C1850.88 34.2918 1856.13 37.7042 1859.88 42.508C1863.63 47.3119 1865.67 53.2322 1865.67 59.3274V213.333C1865.67 216.087 1863.79 218.487 1861.12 219.155L1789.04 237.17L1789.03 237.171C1786.58 237.784 1784.01 237.829 1781.54 237.303C1779.06 236.777 1776.74 235.693 1774.74 234.135C1772.75 232.577 1771.13 230.585 1770.02 228.31C1768.91 226.035 1768.33 223.536 1768.33 221.004V48.6574L1768.35 47.8801C1768.46 43.9964 1769.4 40.1674 1771.11 36.6672C1772.93 32.9365 1775.58 29.6697 1778.85 27.1154C1782.13 24.5611 1785.94 22.7858 1790 21.925ZM1799.39 33.7893C1797.13 33.2244 1794.77 33.1814 1792.49 33.6643C1790.21 34.1472 1788.07 35.1425 1786.23 36.5754C1784.4 38.0083 1782.91 39.8409 1781.89 41.9338C1780.87 44.0239 1780.34 46.3329 1780.33 48.6652V221.001L1780.34 221.266C1780.38 221.883 1780.53 222.489 1780.81 223.046C1781.12 223.683 1781.57 224.242 1782.13 224.678C1782.69 225.114 1783.34 225.417 1784.03 225.565C1784.72 225.712 1785.44 225.699 1786.13 225.528L1853.67 208.648V59.3293L1853.65 58.6887C1853.52 55.4967 1852.39 52.4201 1850.42 49.8938C1848.31 47.199 1845.37 45.2845 1842.05 44.4553H1842.05L1799.39 33.7893Z" fill="#323232"/>
<path d="M1717 213.334V63.9997C1717 57.281 1719.67 50.8375 1724.42 46.0866C1729.17 41.3358 1735.61 38.6668 1742.33 38.6667H1774.33C1776.54 38.6667 1778.33 40.4575 1778.33 42.6667C1778.33 44.8758 1776.54 46.6667 1774.33 46.6667H1742.33C1737.74 46.6668 1733.33 48.4933 1730.08 51.7438C1726.83 54.9944 1725 59.4027 1725 63.9997V213.334C1725 215.543 1723.21 217.334 1721 217.334C1718.79 217.334 1717 215.543 1717 213.334Z" fill="#323232"/>
<path d="M1806.44 122C1809.75 122 1812.44 124.686 1812.44 128C1812.44 131.314 1809.75 134 1806.44 134H1806.33C1803.02 134 1800.33 131.314 1800.33 128C1800.33 124.686 1803.02 122 1806.33 122H1806.44Z" fill="#323232"/>
<path d="M1891.67 207.333C1894.98 207.333 1897.67 210.02 1897.67 213.333C1897.67 216.647 1894.98 219.333 1891.67 219.333H1859.67C1856.35 219.333 1853.67 216.647 1853.67 213.333C1853.67 210.02 1856.35 207.333 1859.67 207.333H1891.67Z" fill="#323232"/>
<path d="M51.5 383C37.7105 386.147 32.7577 390.445 31 404.5V489.5C32.6354 502.59 36.9925 507.331 51.5 511H202C215.469 507.413 220.552 502.696 223 487V404.5C217.939 388.305 212.542 383.958 199 383H51.5Z" fill="#FCD227"/>
<path d="M138 447C138 453.075 133.075 458 127 458C120.925 458 116 453.075 116 447C116 440.925 120.925 436 127 436C133.075 436 138 440.925 138 447Z" fill="#FB8500"/>
<path d="M134.167 446.667C134.167 442.157 130.511 438.5 126 438.5C121.49 438.5 117.833 442.157 117.833 446.667C117.834 451.177 121.49 454.833 126 454.833C130.511 454.833 134.166 451.177 134.167 446.667ZM139.167 446.667C139.166 453.938 133.272 459.833 126 459.833C118.729 459.833 112.834 453.939 112.833 446.667C112.833 439.395 118.729 433.5 126 433.5C133.272 433.5 139.167 439.395 139.167 446.667Z" fill="#323232"/>
<path d="M126 290.333C142.001 290.333 157.348 296.69 168.662 308.004C179.977 319.318 186.334 334.665 186.334 350.666V375.667H200.667C216.315 375.667 229 388.352 229 404V489.334C229 504.982 216.315 517.667 200.667 517.667H51.333C35.6853 517.667 23.0004 504.982 23 489.334V404C23.0002 388.352 35.6852 375.667 51.333 375.667H65.667V350.666C65.6672 334.665 72.0233 319.318 83.3379 308.004C94.6525 296.69 109.999 290.333 126 290.333ZM51.333 389.667C43.4172 389.667 37.0002 396.084 37 404V489.334C37.0004 497.25 43.4173 503.667 51.333 503.667H200.667C208.583 503.667 215 497.25 215 489.334V404C215 396.084 208.583 389.667 200.667 389.667H51.333ZM126 304.333C113.712 304.333 101.926 309.214 93.2373 317.903C84.5483 326.592 79.6672 338.378 79.667 350.666V375.667H172.334V350.666C172.334 338.378 167.452 326.592 158.763 317.903C150.074 309.214 138.288 304.333 126 304.333Z" fill="#323232"/>
<path d="M1455 32C1436.81 30.0918 1428.57 32.6732 1421 50.5L1424 205.5C1429.62 221.417 1436.34 223.178 1451.5 220L1589 139.5C1596.21 123.131 1592.8 116.944 1581.5 108L1455 32Z" fill="#FC6E20"/>
<path d="M1443.77 20.9937C1449.29 21.0124 1454.7 22.4862 1459.46 25.2642L1587.4 99.897C1592.15 102.649 1596.09 106.599 1598.83 111.35C1601.56 116.101 1603.01 121.487 1603.01 126.971C1603.02 132.455 1601.58 137.844 1598.85 142.6C1596.12 147.356 1592.19 151.312 1587.45 154.073L1459.46 228.737L1459.46 228.736C1454.7 231.514 1449.29 232.988 1443.77 233.006C1438.26 233.025 1432.84 231.589 1428.06 228.842C1423.28 226.096 1419.31 222.137 1416.55 217.365C1413.79 212.593 1412.33 207.177 1412.33 201.664V52.3336C1412.33 46.8213 1413.79 41.4065 1416.55 36.6353C1419.31 31.8633 1423.28 27.904 1428.06 25.1578C1432.84 22.4116 1438.26 20.975 1443.77 20.9937ZM1443.71 40.9937C1441.71 40.9869 1439.75 41.5062 1438.02 42.4996C1436.29 43.4929 1434.86 44.925 1433.86 46.6509C1432.86 48.377 1432.33 50.3365 1432.33 52.3306V201.669C1432.33 203.664 1432.86 205.623 1433.86 207.349C1434.86 209.075 1436.29 210.507 1438.02 211.501C1439.75 212.494 1441.71 213.013 1443.71 213.006C1445.7 213 1447.66 212.466 1449.38 211.461L1449.38 211.461L1577.38 136.794L1577.39 136.792C1579.1 135.793 1580.52 134.362 1581.51 132.642C1582.5 130.922 1583.01 128.972 1583.01 126.989C1583.01 125.005 1582.49 123.057 1581.5 121.338C1580.51 119.62 1579.08 118.191 1577.37 117.196C1577.36 117.192 1577.35 117.188 1577.35 117.184L1449.38 42.5396L1449.38 42.5386C1447.66 41.5337 1445.7 41.0005 1443.71 40.9937Z" fill="#323232"/>
<path d="M1560.35 500.007C1578.54 501.915 1586.77 499.333 1594.35 481.507L1591.35 326.507C1585.73 310.589 1579 308.828 1563.85 312.007L1426.35 392.507C1419.14 408.875 1422.54 415.063 1433.85 424.007L1560.35 500.007Z" fill="#FC6E20"/>
<path d="M1571.57 511.013C1566.06 510.994 1560.65 509.52 1555.89 506.742L1427.94 432.11C1423.2 429.357 1419.26 425.407 1416.52 420.656C1413.78 415.905 1412.34 410.519 1412.33 405.035C1412.33 399.551 1413.76 394.162 1416.49 389.406C1419.22 384.651 1423.16 380.694 1427.89 377.934L1555.89 303.27L1555.89 303.271C1560.65 300.493 1566.06 299.019 1571.57 299C1577.09 298.982 1582.51 300.418 1587.29 303.164C1592.07 305.911 1596.04 309.87 1598.8 314.642C1601.56 319.414 1603.01 324.83 1603.01 330.343L1603.01 479.673C1603.01 485.185 1601.56 490.6 1598.8 495.371C1596.04 500.143 1592.07 504.103 1587.29 506.849C1582.51 509.595 1577.09 511.032 1571.57 511.013ZM1571.64 491.013C1573.64 491.02 1575.6 490.5 1577.33 489.507C1579.05 488.514 1580.49 487.082 1581.49 485.356C1582.49 483.63 1583.01 481.67 1583.01 479.676L1583.01 330.337C1583.01 328.343 1582.49 326.383 1581.49 324.657C1580.49 322.931 1579.05 321.499 1577.33 320.506C1575.6 319.513 1573.64 318.993 1571.64 319C1569.65 319.007 1567.69 319.54 1565.97 320.545L1565.97 320.546L1437.97 395.212L1437.96 395.215C1436.25 396.213 1434.83 397.644 1433.84 399.364C1432.85 401.085 1432.33 403.034 1432.33 405.018C1432.34 407.001 1432.86 408.95 1433.85 410.668C1434.84 412.387 1436.26 413.815 1437.98 414.811C1437.99 414.814 1437.99 414.819 1438 414.822L1565.97 489.467L1565.97 489.468C1567.69 490.473 1569.65 491.006 1571.64 491.013Z" fill="#323232"/>
<path d="M1157 276L1104 330L1233 532L1360 330L1307 276H1157Z" fill="#B8B8B8"/>
<path d="M1157 276L1104 330L1233 532L1157 276Z" fill="#323232"/>
<path d="M1307 276H1157L1233 532L1307 276Z" fill="#4D4D4D"/>
<path d="M1157 276L1104 330H1173L1157 276Z" fill="#424141"/>
<path d="M1307 276L1360 330H1291.5L1307 276Z" fill="#DFDFDF"/>
<path d="M1173 330L1233 276L1291.5 330H1173Z" fill="#7E7E7E"/>
</svg>
